<svg xmlns="http://www.w3.org/2000/svg" height="67.138" width="62.595" viewBox="0 0 62.595 67.138"><path fill="#fadceb" d="M59.108 32.236l-1.819 1.913v13.467c.194.164.384.329.568.496h1.251zM11.645 48.112h1.819v-5.019h-1.819zM30.079.627c-.457 0-.932.021-1.428.067-5.612.522-7.486 5.535-8.109 9.097.124.01.246.032.363.073l-.039-1.473a.375.375 0 01.213-.349.375.375 0 01.375.034c.858-3.07 2.812-6.413 7.249-6.825 4.386-.405 7.145 1.163 8.883 3.354.05-.03.104-.05.164-.054a.375.375 0 01.367.227l.52 1.217c.117-.1.249-.181.392-.243C37.482 2.97 34.783.627 30.08.627"/><path fill="#fff" d="M60.45 61.943c1.258-1.886 1.675-4.09 1.208-6.372-.93-4.542-5.476-9.26-12.783-11.749v3.938c5.183 2.066 8.561 5.374 9.21 8.543.571 2.79-1.03 5.065-4.63 6.58a1.81 1.81 0 00-.98.993 1.826 1.826 0 002.397 2.369c2.465-1.039 4.394-2.527 5.578-4.302"/><path d="M49 42.868l7.664-8.061v12.302c-2.067-1.61-4.64-3.005-7.664-4.026zm0-2.472l9.983-10.648v1.531L49 41.78zm8.29 7.22V34.15l1.818-1.913v15.876h-1.251a20.176 20.176 0 00-.568-.496M2.444 61.871H.624V42.968h1.82zm44.111 0V42.968h1.794c.008.01.016.017.026.025v18.878zM11.121 29.335h.748v7.239c0 .038.009.072.024.105l.001.005.001.002.001.001a.24.24 0 00.043.06l.013.01c.012.01.022.021.035.03h.002l.021.01a.245.245 0 00.108.027H35.52l.009-.002a.253.253 0 00.096-.023c.01-.004.016-.012.025-.018a.235.235 0 00.059-.048c.003-.004.008-.005.01-.01l2.055-2.751a2.562 2.562 0 002.15.556c2.792-.548 5.716-2.806 6.97-5.193h11.448l-9.88 10.539H1.24zm24.649 6.486v-1.656l1.168-1.52c.093.36.26.686.483.964zm0-5.642v-.844h3.548c-.14.055-.283.107-.43.155a3.214 3.214 0 00-1.197.69zm0 1.294v-.793h1.493a2.452 2.452 0 00-.342.793zm1.055.5l-1.055 1.372v-1.372zM13.422 20.89h20.794c.58 0 1.054.473 1.054 1.054v14.38H12.369v-14.38c0-.581.472-1.054 1.053-1.054m14.514-2.837c0-.179.145-.323.323-.323h1.683a.323.323 0 010 .645H28.26a.323.323 0 01-.323-.322m-6.104-1.56c.775.881 2.226 1.787 4.924 1.787.227 0 .465-.008.71-.021a.823.823 0 00.793.616h1.683a.824.824 0 000-1.646H28.26a.823.823 0 00-.808.675c-3.454.195-4.973-1.003-5.634-1.967l-.007-.272c.246-.295.386-.678.359-1.09l-.22-3.35a1.532 1.532 0 00-.278-.778l-.033-1.237 2.845 2.416a.37.37 0 00.294.086l11.626-1.607a.374.374 0 00.308-.265l1.125-3.81.316.739c-.07.262-.076.539-.002.808l.895 3.235a1.544 1.544 0 001.311 1.12l2.476 5.796c.642 1.851 1.545 3.09 2.343 4.183 1.284 1.76 2.213 3.03 1.507 5.931-.625 2.57-3.85 5.35-6.903 5.95a1.826 1.826 0 01-2.14-1.438c-.213-1.078.618-1.871 1.48-2.151 1.78-.578 2.902-1.595 4.285-3.887a.375.375 0 00-.642-.387c-.795 1.317-1.463 2.121-2.133 2.656h-4.86v-6.641c0-.857-.697-1.554-1.553-1.554h-12.28zm-1.495-6.21a1.038 1.038 0 01.757.257c.211.184.337.439.355.718l.22 3.35a1.047 1.047 0 01-2.086.137l-.22-3.35a1.037 1.037 0 01.256-.758c.184-.21.44-.335.718-.354M39.03 5.752a1.513 1.513 0 00-.392.243l-.52-1.217a.374.374 0 00-.367-.227.365.365 0 00-.164.054C35.849 2.414 33.089.846 28.703 1.25c-4.437.413-6.391 3.757-7.25 6.826a.375.375 0 00-.374-.034.375.375 0 00-.213.349l.04 1.472a1.513 1.513 0 00-.364-.072c.623-3.561 2.497-8.574 8.109-9.097.496-.045.97-.067 1.428-.067 4.703 0 7.403 2.344 8.95 5.125M28.76 1.872c4.268-.392 6.9 1.204 8.524 3.384L36.06 9.395l-11.22 1.55-2.862-2.43c.769-2.957 2.57-6.25 6.782-6.642m11.26 9.437a1.037 1.037 0 01-.493-.63l-.895-3.237c-.074-.269-.04-.55.098-.793a1.036 1.036 0 01.912-.531 1.043 1.043 0 011.006.767l.895 3.236c.075.269.04.551-.098.794a1.038 1.038 0 01-.63.492c-.27.075-.552.04-.795-.098M2.694 42.343H.75v-1.719h47.5v1.719h-1.945zm8.95.75h1.82v5.02h-1.82zm4.5 9.49a1.808 1.808 0 01-1.4-.243 1.81 1.81 0 01-.803-1.174c-.193-.956.464-1.923 1.463-2.157l3.405-.794a.375.375 0 00.27-.489c-.486-1.393-.588-3.036-.31-4.633h11.185c-.256 2.229.132 4.809 1.16 7.715-3.545.431-14.81 1.753-14.93 1.767a.403.403 0 00-.04.007m12.405 4.98c-.653-.65-.682-1.751-.08-2.487l3.429-3.697a.368.368 0 00.065-.097l.004-.013a.366.366 0 00.027-.114c.002-.014 0-.027 0-.04a.383.383 0 00-.015-.096c-.003-.009-.001-.017-.005-.026-1.122-3.017-1.541-5.658-1.265-7.899h15.346v5.051C42.32 50.65 31.86 57.39 30.201 58.071c-.485.199-1.149-.006-1.652-.508m23.935 7.71a1.81 1.81 0 01-.009-1.397 1.81 1.81 0 01.98-.992c3.6-1.516 5.201-3.792 4.63-6.581-.649-3.17-4.027-6.477-9.21-8.543v-3.938c7.307 2.49 11.853 7.207 12.783 11.749.467 2.283.05 4.486-1.208 6.372-1.184 1.776-3.113 3.263-5.578 4.302a1.826 1.826 0 01-2.388-.973m6.028-16.534h.846a.375.375 0 00.375-.376V28.96a.367.367 0 00-.034-.152c-.006-.014-.018-.025-.026-.038a.375.375 0 00-.066-.085c-.004-.004-.005-.01-.01-.013-.011-.01-.026-.012-.038-.02a.356.356 0 00-.085-.043.34.34 0 00-.065-.013c-.017-.003-.033-.01-.051-.01H47.236c.07-.189.13-.378.175-.566.788-3.238-.333-4.773-1.63-6.55-.528-.723-1.101-1.516-1.607-2.507l-1.387-3.25 2.739.388a.179.179 0 00.201-.152.178.178 0 00-.151-.2l-2.953-.418-.413-.97 4.46-.487a.179.179 0 00-.038-.354l-4.569.5-.348-.816 3.671-1.403a.179.179 0 00.103-.23.18.18 0 00-.23-.103l-3.684 1.408-.401-.939a1.652 1.652 0 00.971-1.98L41.25 6.72a1.66 1.66 0 00-.786-1.009 1.663 1.663 0 00-.853-.21C37.831 2.24 34.566-.483 28.593.071c-6.038.561-8.022 5.913-8.67 9.66a1.657 1.657 0 00-1.184 1.705l.22 3.349c.026.389.19.744.452 1.025l-1.78-.371a.178.178 0 00-.072.349l3.524.734.017.634-5.178.04a.179.179 0 00.001.357h.002l5.183-.04h.002l.013.501-3.78 1.021a.178.178 0 00.093.344l3.697-.998.05 1.883h-7.76a1.68 1.68 0 00-1.679 1.679v6.64h-.786a.374.374 0 00-.273.12L.1 39.992l-.007.01c-.01.011-.016.024-.024.036a.38.38 0 00-.039.066l-.013.042a.372.372 0 00-.014.078c0 .008-.004.016-.004.025V62.12c0 .207.168.375.375.375h2.319a.375.375 0 00.375-.375V43.093h7.95v5.27c0 .207.169.375.376.375h2.32a.376.376 0 00.374-.376v-5.269h3.935c-.252 1.539-.183 3.107.219 4.484l-3.01.702c-1.39.325-2.3 1.686-2.027 3.035.14.69.541 1.278 1.132 1.658a2.55 2.55 0 001.954.345c.518-.06 10.404-1.221 14.36-1.698l-2.749 2.963c-.858 1.049-.807 2.591.116 3.512.522.52 1.17.803 1.778.803.239 0 .471-.044.689-.132 1.705-.7 11.323-6.897 15.444-9.637V62.12c0 .207.168.375.375.375h2.32a.376.376 0 00.375-.375V48.598c4.71 1.959 7.76 4.968 8.35 7.855.62 3.026-1.934 4.792-4.185 5.74a2.556 2.556 0 00-1.385 1.4 2.557 2.557 0 00.013 1.97 2.578 2.578 0 003.37 1.373c2.601-1.096 4.645-2.679 5.912-4.577 1.37-2.056 1.826-4.455 1.318-6.938-.467-2.279-1.796-4.598-3.88-6.683"/><path fill="#fff" d="M29.954 43.093H18.77c-.28 1.597-.177 3.24.308 4.633a.377.377 0 01-.269.489l-3.405.795c-1 .233-1.656 1.2-1.463 2.156.1.489.383.905.802 1.174.419.27.915.355 1.4.242a.53.53 0 01.042-.007c.119-.014 11.384-1.336 14.929-1.768-1.028-2.905-1.416-5.486-1.16-7.714"/><path fill="#fff" d="M46.055 48.144v-5.05H30.71c-.276 2.24.143 4.881 1.265 7.898.004.009.002.017.005.026a.384.384 0 01.015.095c0 .014.002.027 0 .041a.362.362 0 01-.028.114.03.03 0 01-.003.013.377.377 0 01-.065.097l-3.43 3.697c-.602.736-.573 1.837.081 2.488.503.502 1.167.707 1.652.508 1.66-.68 12.118-7.421 15.854-9.927M30.602 16.656c-.491 0-.79-.405-.961-.773l-.038.005a1.23 1.23 0 01-.094.004c-.709 0-.97-.632-1.01-.98a.178.178 0 01.355-.04c.008.072.109.7.722.661.644-.048.685-.772.687-.803a.178.178 0 01.161-.169.18.18 0 01.19.137c.014.057.17.565.98.37.24-.057.407-.17.497-.335.169-.31.032-.726.03-.73a.178.178 0 11.337-.117c.007.023.192.564-.055 1.017-.14.257-.384.43-.725.512-.029.007-.054.008-.082.014-.038.48-.208 1.105-.83 1.212a.973.973 0 01-.164.015m-6.21-1.525a.617.617 0 11-.281-1.203.617.617 0 01.28 1.203m13.039-3.48a.617.617 0 11.28 1.202.617.617 0 01-.28-1.203m-3.214 8.74c.857 0 1.554.697 1.554 1.554v6.64h4.86c.669-.534 1.337-1.338 2.132-2.655a.375.375 0 11.642.387c-1.383 2.292-2.504 3.31-4.285 3.887-.862.28-1.693 1.072-1.48 2.152a1.826 1.826 0 002.14 1.437c3.053-.6 6.279-3.38 6.903-5.95.705-2.9-.223-4.171-1.507-5.93-.797-1.094-1.701-2.333-2.343-4.184l-2.476-5.797a1.544 1.544 0 01-1.31-1.118l-.896-3.236a1.529 1.529 0 01.002-.808l-.315-.738L36.71 9.84a.374.374 0 01-.308.265L24.777 11.71a.372.372 0 01-.294-.085L21.638 9.21l.033 1.237c.16.228.258.493.277.778l.22 3.35c.028.412-.112.795-.358 1.09l.007.272c.66.964 2.18 2.162 5.634 1.967a.823.823 0 01.808-.674h1.683a.824.824 0 010 1.646H28.26a.823.823 0 01-.794-.617c-.244.013-.483.021-.709.021-2.698 0-4.149-.906-4.923-1.786l.103 3.896z"/><path d="M37.71 12.853a.618.618 0 10-.281-1.204.618.618 0 00.281 1.204m-13.6 1.075a.618.618 0 10.282 1.203.618.618 0 00-.281-1.203"/><path fill="#fff" d="M46.305 42.343h1.945v-1.72H.75v1.72h1.944zM58.983 31.28v-1.532L49 40.397v1.382zm-19.665-1.945H35.77v.845h1.921a3.213 3.213 0 011.197-.69c.147-.048.29-.1.43-.155"/><path fill="#fff" d="M1.24 39.873h47.222l9.88-10.538H46.894c-1.255 2.387-4.179 4.645-6.97 5.194a2.56 2.56 0 01-2.15-.557l-2.054 2.751-.011.01a.242.242 0 01-.059.048c-.008.006-.016.013-.025.018a.254.254 0 01-.096.023l-.01.002H12.12a.253.253 0 01-.088-.018l-.02-.01c-.008-.003-.015-.005-.022-.009h-.002c-.013-.008-.024-.02-.034-.03l-.014-.01a.25.25 0 01-.043-.06l-.001-.001v-.002c-.002-.001-.001-.004-.002-.005a.244.244 0 01-.024-.105v-7.239h-.748z"/><path fill="#fadceb" d="M48.375 42.993a.28.28 0 01-.026-.025h-1.793v18.903h1.819zM.625 61.87h1.819V42.969H.624zM35.77 30.68v.793h1.151c.066-.281.18-.549.341-.793zm1.65 2.93a2.566 2.566 0 01-.482-.964l-1.168 1.519v1.656zm-1.65-.265l1.055-1.372H35.77zm-13.954-6.743a1.14 1.14 0 011.13 1.149 1.14 1.14 0 011.149-1.13c.629.006.992.535 1.13 1.15.204.912-2.304 2.948-2.304 2.948s-2.417-2.067-2.253-2.987c.11-.62.52-1.135 1.148-1.13m-9.447 9.722h22.9v-14.38c0-.581-.472-1.054-1.053-1.054H13.423c-.581 0-1.054.473-1.054 1.054z"/><path fill="#fff" d="M20.668 27.732c-.164.92 2.253 2.987 2.253 2.987s2.508-2.036 2.303-2.949c-.137-.614-.5-1.143-1.13-1.149a1.14 1.14 0 00-1.148 1.13c.006-.63-.5-1.144-1.13-1.149-.628-.005-1.038.51-1.148 1.13"/><path fill="#fadceb" d="M41.445 10.916c.138-.243.173-.525.098-.794l-.895-3.236a1.038 1.038 0 00-.492-.63 1.039 1.039 0 00-.795-.099c-.269.075-.493.25-.63.493a1.037 1.037 0 00-.099.793l.895 3.236c.074.27.25.494.493.631a1.04 1.04 0 001.425-.394m-21.825-.279c-.185.21-.276.48-.258.758l.221 3.35c.018.28.144.534.354.718a1.046 1.046 0 001.732-.855l-.22-3.35a1.037 1.037 0 00-.354-.718 1.038 1.038 0 00-.758-.257 1.037 1.037 0 00-.718.354m8.641 7.738h1.682a.323.323 0 000-.645H28.26a.323.323 0 000 .645m2.973-2.911a1.088 1.088 0 01-.56-.146.927.927 0 01-.155-.12c-.093.23-.26.46-.53.589.143.287.372.563.718.504.366-.064.49-.47.527-.827"/><path d="M29.988 15.787c.27-.13.437-.36.53-.59a.927.927 0 00.155.121c.16.098.349.142.56.146-.037.357-.162.763-.527.827-.346.06-.575-.218-.718-.504m1.608-.359c.028-.005.053-.006.081-.013.342-.083.586-.255.726-.512.247-.453.062-.994.054-1.017a.178.178 0 10-.336.117c.002.004.139.42-.03.73-.09.164-.257.278-.497.336-.81.194-.966-.314-.98-.371a.18.18 0 00-.19-.137.179.179 0 00-.162.17c-.001.03-.042.754-.686.802-.614.04-.713-.59-.722-.662a.178.178 0 10-.354.04c.039.35.3.981 1.009.981.03 0 .062-.001.094-.004.013 0 .025-.004.038-.006.17.369.47.774.96.774a.97.97 0 00.166-.014c.62-.108.79-.733.83-1.214"/></svg>